<?xml version="1.0" encoding="UTF-8"?>
<svg id="Layer_2" data-name="Layer 2" xmlns="http://www.w3.org/2000/svg" viewBox="0 0 447.51 371.36">
  <defs>
    <style>
      .cls-1 {
        fill: #e5e5e5;
      }
    </style>
  </defs>
  <g id="Layer_1-2" data-name="Layer 1">
    <path class="cls-1" d="M371.32,125.38c-.29-20.88-10.19-40.49-26.8-53.14-30.43-23.17-65.18-41.75-103.55-54.39C202.61,5.2,163.62-.5,125.38,.03c-20.88,.29-40.49,10.19-53.14,26.8-23.17,30.43-41.75,65.18-54.39,103.55C5.2,168.75-.5,207.74,.03,245.98c.29,20.88,10.19,40.49,26.8,53.14,30.43,23.17,65.18,41.75,103.55,54.39,38.37,12.64,77.36,18.35,115.6,17.81,20.88-.29,40.49-10.19,53.14-26.8,23.17-30.43,41.75-65.18,54.39-103.55,12.64-38.37,18.35-77.36,17.81-115.6Z"/>
    <g>
      <path d="M447.51,170.33v30.69c-.39,1.4-.94,2.77-1.15,4.19-10.22,70.73-48.66,119.16-115.45,144.32-13.74,5.17-28.81,6.81-43.26,10.07h-28.14c-1.43-.36-2.84-.88-4.29-1.04-76.49-8.49-137.02-63.88-152.25-139.42-1.3-6.43-2.23-12.93-3.33-19.4,0-9.8,0-19.61,0-29.41,.4-1.39,.96-2.76,1.17-4.18,10.26-71.01,49-119.43,116.02-144.58,13.55-5.08,28.41-6.65,42.67-9.83,9.38,0,18.76,0,28.14,0,1.64,.38,3.26,.93,4.92,1.11,70.25,7.48,129.55,57.57,148.38,125.77,2.87,10.38,4.41,21.12,6.56,31.7Zm-20.42,15.57c.3-84.41-68.42-153.48-152.94-153.73-84.61-.26-153.74,68.24-154.07,152.65-.33,84.97,68.21,154.13,152.98,154.37,84.93,.24,153.73-68.23,154.03-153.28Z"/>
      <path d="M245.15,227.32c13.6,0,27.29,.99,40.78-.21,27.99-2.49,47.8-26.56,46.61-55.15-1.1-26.29-23.56-48.19-50.69-48.81-18.95-.43-37.92-.11-56.88-.12-1.92,0-3.84,.04-5.75-.02-7.26-.2-12-4.36-11.97-10.49,.03-6.04,4.8-10.26,12.16-10.3,18.75-.1,37.5-.27,56.24,.07,7.82,.15,15.85,.64,23.39,2.53,35.09,8.81,58.36,43.01,54.06,78.64-4.41,36.64-34.26,64.11-70.7,64.86-12.5,.26-25.02,.04-39.6,.04,4.75,4.79,8.28,8.27,11.71,11.82,5.69,5.89,6.25,11.66,1.67,16.28-4.47,4.51-10.81,4.04-16.31-1.41-9.54-9.44-19.04-18.92-28.44-28.51-5.69-5.81-5.75-10.92-.12-16.68,9.69-9.9,19.48-19.69,29.38-29.37,4.88-4.78,11.2-4.9,15.38-.72,4.38,4.39,4.32,10.27-.6,15.32-3.67,3.76-7.75,7.12-11.65,10.66,.44,.52,.89,1.05,1.33,1.57Z"/>
    </g>
  </g>
</svg>