<?xml version="1.0" encoding="UTF-8"?>
<svg id="Layer_2" data-name="Layer 2" xmlns="http://www.w3.org/2000/svg" viewBox="0 0 623.3 415.21">
  <defs>
    <style>
      .cls-1 {
        fill: #e5e5e5;
      }
    </style>
  </defs>
  <g id="Layer_1-2" data-name="Layer 1">
    <path class="cls-1" d="M394.79,142.5c1.18-20.85-7.3-41.11-22.98-54.9-28.72-25.26-62.07-46.25-99.45-61.57C234.98,10.72,196.5,2.27,158.31,.11c-20.85-1.18-41.11,7.3-54.9,22.98-25.26,28.72-46.25,62.07-61.57,99.45-15.32,37.38-23.77,75.87-25.93,114.06-1.18,20.85,7.3,41.11,22.98,54.9,28.72,25.26,62.07,46.25,99.45,61.57,37.38,15.32,75.87,23.77,114.06,25.93,20.85,1.18,41.11-7.3,54.9-22.98,25.26-28.72,46.25-62.07,61.57-99.45,15.32-37.38,23.77-75.87,25.93-114.06Z"/>
    <g>
      <path d="M234.63,415.21c-2.41-.62-4.83-1.21-7.23-1.86-20.6-5.5-34.27-18.42-40.44-38.78-1.25-4.13-2.94-5.13-6.91-5.1-26.16,.15-52.32,.09-78.48,.07-10.69,0-13.82-3.2-13.83-14.03-.02-18.77,0-37.55,0-56.32,0-2.28,0-4.56,0-7.7-2.77,0-5.02,0-7.26,0-23.42,0-46.84-.03-70.25,0-4.97,0-9.35-1.89-10.1-6.74-.53-3.4,.9-7.75,2.92-10.67,1.3-1.88,5.22-2.71,7.98-2.72,41.77-.16,83.54-.17,125.31-.06,7.36,.02,11.77,4.4,11.53,10.59-.24,5.96-4.46,9.49-11.74,9.57-9.04,.09-18.08,.02-27.62,.02v57.81c2.2,0,4.44,0,6.67,0,21.73,0,43.46-.08,65.19,.07,3.74,.03,5.36-.94,6.48-4.83,7.06-24.52,28.43-40.63,53.33-40.68,24.85-.05,46.12,15.99,53.44,40.57,.96,3.22,1.78,4.97,5.69,4.96,46.63-.14,93.25-.09,139.88-.11,1.01,0,2.01-.22,3.53-.4V91.4H108.31v24.58c2.55,0,4.82,0,7.1,0,16.88,0,33.76-.08,50.63,.05,7.23,.06,11.48,3.84,11.63,9.75,.16,6.17-4.24,10.37-11.71,10.38-40.08,.1-80.15,.09-120.23,0-7.47-.02-11.92-4.2-11.78-10.32,.14-6.1,4.53-9.76,12.23-9.83,11.39-.11,22.79-.03,34.18-.04,2.27,0,4.53,0,7.38,0,0-8.1,0-15.44,0-22.77,.02-16.14,6.46-22.65,22.55-22.65,107.18-.01,214.35,0,321.53,0,3.38,0,6.75-.02,10.13,0,14.68,.12,21.51,7.01,21.56,21.88,.05,17.93,.01,35.86,.01,53.79,0,2.09,0,4.18,0,7.24,2.6,0,4.82,0,7.04,0,21.52,0,43.04,.13,64.56-.05,12.16-.1,20.87,4.88,26.78,15.6,17.4,31.55,35.01,62.98,52.61,94.42,5.9,10.54,8.9,21.73,8.81,33.84-.13,17.51,.01,35.01-.05,52.52-.04,12.7-6.93,20.3-19.45,19.54-10.9-.66-17.04,1.23-21.31,13.27-6.38,18.01-21.6,27.91-40.55,31.43-1.2,.22-2.33,.77-3.5,1.17h-11.39c-.95-.37-1.87-.9-2.86-1.09-23.11-4.35-37.94-17.94-44.99-40.23-.43-1.35-.87-2.69-1.28-3.98h-183.04c-5.16,20.8-17.32,35.08-37.43,42.14-3.72,1.31-7.61,2.12-11.42,3.15h-11.39Zm368.39-66.76c0-17.04,.68-33.94-.29-50.75-.48-8.34-2.49-17.31-6.39-24.62-16.74-31.42-34.5-62.3-51.69-93.48-2.49-4.52-5.66-6.02-10.66-5.97-21.31,.21-42.62,.09-63.93,.09-2.01,0-4.02,0-5.9,0v175.27q12.79,1.03,16.92-9.63c8.26-21.31,28.64-35.37,51.44-35.49,22.81-.11,43.33,13.75,51.79,34.97q4.46,11.19,16.87,10.34c.38-.03,.75-.29,1.83-.73Zm-397.67,10.36c.05,20.45,15.44,36.1,35.27,35.88,19.26-.21,34.59-15.93,34.57-35.43-.02-19.71-15.73-35.31-35.4-35.16-19.17,.15-34.49,15.59-34.44,34.7Zm362.35,.88c-.01-20.06-15.19-35.55-34.87-35.59-19.4-.04-34.96,15.51-34.95,34.91,.01,19.99,15.2,35.51,34.9,35.69,19.13,.18,34.93-15.66,34.92-35.01Z"/>
      <path d="M0,173.25c4.24-1.34,8.47-3.76,12.73-3.84,21.26-.4,42.53-.21,63.8-.16,8.13,.02,12.43,3.65,12.32,10.16-.1,6.27-4.34,10-12.01,10.03-21.9,.1-43.8,.26-65.7-.18-3.75-.08-7.43-3-11.15-4.61,0-3.8,0-7.59,0-11.39Z"/>
      <path d="M111.34,222.61c0-16.42,0-32.18,0-47.93,0-2.53-.02-5.06,0-7.59,.09-7.87,3.98-12.62,10.23-12.5,6.16,.11,9.98,4.92,10.01,12.82,.05,13.92,.01,27.83,.01,41.75,0,4.19,0,8.39,0,13.46,2.58,0,4.8,0,7.03,0,40.28,0,80.56,0,120.84,0,1.9,0,3.84-.2,5.68,.14,5.16,.94,8.32,4,8.61,9.38,.29,5.37-2.5,8.83-7.53,10.28-1.97,.57-4.18,.42-6.28,.42-57.15,.02-114.3,.02-171.45,.01-1.48,0-2.96,.07-4.42-.09-5.97-.65-9.74-4.86-9.52-10.53,.21-5.36,4.03-9.33,9.8-9.55,6.74-.25,13.49-.07,20.24-.08,2.05,0,4.09,0,6.74,0Z"/>
    </g>
  </g>
</svg>