<?xml version="1.0" encoding="UTF-8"?>
<svg id="Layer_2" data-name="Layer 2" xmlns="http://www.w3.org/2000/svg" viewBox="0 0 450.69 388.75">
  <defs>
    <style>
      .cls-1 {
        fill: #e5e5e5;
      }
    </style>
  </defs>
  <g id="Layer_1-2" data-name="Layer 1">
    <path class="cls-1" d="M400.22,62.66c-10.75-17.9-29.17-29.88-49.89-32.45-37.96-4.72-77.33-3.31-116.86,5.06-39.52,8.37-76.09,23.04-108.88,42.74-17.9,10.75-29.88,29.17-32.45,49.89-4.72,37.96-3.31,77.33,5.06,116.86,8.37,39.52,23.04,76.09,42.74,108.88,10.75,17.9,29.17,29.88,49.89,32.45,37.96,4.72,77.33,3.31,116.86-5.06,39.52-8.37,76.09-23.04,108.88-42.74,17.9-10.75,29.88-29.17,32.45-49.89,4.72-37.96,3.31-77.33-5.06-116.86-8.37-39.52-23.04-76.09-42.74-108.88Z"/>
    <path d="M207.76,366.85c-10.73-3.58-21.52-6.83-30-15.14-18.73-18.37-25.65-45.63-5.64-71.68,14.87-19.36,42.26-26.67,66.29-14.28,13.36,6.89,21.99,17.76,26.93,31.78,.57,1.62,1.22,3.22,1.76,4.66,26.47,1.39,57.85-16.32,67.88-35.5-4.15,0-7.85,.27-11.49-.06-5.57-.5-9.03-3.24-9.02-9.42,.07-36.8-.02-73.6,.13-110.41,.03-8.02,2.63-10.18,10.61-10.23,2.62-.02,5.25,0,7.9,0-2.29-47.28-47.19-107.08-116.95-113.59-76.07-7.11-136.13,49.3-143.59,113.59,2.44,0,4.79,0,7.13,0,9.2,.02,12.86,3.48,12.92,12.82,.12,18.07,.04,36.15,.04,54.22,0,16.96,.04,33.92-.01,50.87-.03,8.27-3.93,12.21-12.31,12.28-12.49,.1-25,.24-37.49-.03C18.78,266.22,.42,247.47,.27,223.39c-.09-14.5-.63-29.04,.16-43.5,1.04-19.01,9.85-33.82,27.95-41.16,6.34-2.57,13.91-2.11,21.21-3.07,2.23-8.68,4.35-17.97,7.03-27.1,7.83-26.74,22.61-49.22,43.17-67.8C125.57,17.43,155.95,4.26,190.67,1.27,191.93,1.17,193.14,.44,194.37,0c6.69,0,13.39,0,20.08,0,1.89,.52,3.75,1.3,5.67,1.52,66.19,7.45,122.57,57.69,134.39,125.78,.52,3,1.02,6,1.6,9.45,13.45-1.96,23.72,3.82,30.5,13.66,6.01,8.73,9.4,19.26,13.94,29v54.89c-3.53,15.4-12.28,26.65-28.1,29.43-9.77,1.72-14.12,7.89-18.73,14.88-1.22,1.85-2.38,3.77-3.81,5.45-20.34,23.98-46.13,37.38-77.57,39.32-4.44,.27-5.9,1.99-7.12,5.88-2.89,9.27-7.99,17.1-15.47,23.66-8.74,7.66-19.35,10.63-29.95,13.92h-12.05ZM70.77,157.22c-8.5,0-16.48-.03-24.45,0-14.52,.06-23.6,8.12-24.19,22.77-.6,14.88-.41,29.81-.07,44.71,.23,9.87,7.99,19.23,17.34,20.02,10.3,.87,20.73,.2,31.37,.2v-87.71Zm264.7,87.83c9.18,0,17.67,.45,26.1-.11,11.81-.77,17.51-7.39,17.54-19.23,.02-11.6-.28-23.21,.09-34.79,.31-9.57-2.29-18.22-7.84-25.66-2.48-3.32-6.73-6.8-10.56-7.32-8.25-1.11-16.75-.34-25.33-.34v87.45Zm-153.52,67.45c.09,17.13,15.48,32.16,32.83,32.07,16.83-.09,31.5-14.48,31.46-30.88-.04-18.2-14.73-32.89-32.66-32.68-17.21,.21-31.73,14.66-31.63,31.48Z"/>
  </g>
</svg>